# Blender v2.77 (sub 0) OBJ File: ''
# www.blender.org
mtllib bridge.mtl
o Cube_Cube.001
v -1.320000 -0.300000 11.999998
v -1.320000 0.300000 11.999998
v -1.320000 -0.300000 -11.999998
v -1.320000 0.300000 -11.999998
v 1.320000 -0.300000 11.999998
v 1.320000 0.300000 11.999998
v 1.320000 -0.300000 -11.999998
v 1.320000 0.300000 -11.999998
v -1.000000 0.300000 8.000000
v -0.800000 0.300000 3.999999
v -0.700000 0.300000 -0.000000
v -0.800000 0.300000 -4.000000
v -1.000000 0.300000 -8.000000
v -1.000000 -0.300000 -8.000000
v -0.800000 -0.300000 -3.999999
v -0.700000 -0.300000 0.000000
v -0.800000 -0.300000 4.000000
v -1.000000 -0.300000 8.000000
v 1.000000 0.300000 -8.000000
v 0.800000 0.300000 -3.999999
v 0.700000 0.300000 0.000000
v 0.800000 0.300000 4.000000
v 1.000000 0.300000 8.000000
v 1.000000 -0.300000 8.000000
v 0.800000 -0.300000 3.999999
v 0.700000 -0.300000 -0.000000
v 0.800000 -0.300000 -4.000000
v 1.000000 -0.300000 -8.000000
vn -0.9968 0.0000 0.0797
vn 0.0000 0.0000 -1.0000
vn 0.9968 0.0000 -0.0797
vn 0.0000 0.0000 1.0000
vn 0.0000 -1.0000 -0.0000
vn 0.0000 1.0000 -0.0000
vn 0.9968 -0.0000 0.0797
vn 0.9988 -0.0000 0.0499
vn 0.9997 0.0000 0.0250
vn 0.9997 0.0000 -0.0250
vn 0.9988 0.0000 -0.0499
vn -0.9968 -0.0000 -0.0797
vn -0.9988 -0.0000 -0.0499
vn -0.9997 0.0000 -0.0250
vn -0.9997 0.0000 0.0250
vn -0.9988 0.0000 0.0499
usemtl None
s off
f 13//1 4//1 3//1 14//1
f 4//2 8//2 7//2 3//2
f 23//3 6//3 5//3 24//3
f 6//4 2//4 1//4 5//4
f 14//5 3//5 7//5 28//5
f 19//6 8//6 4//6 13//6
f 6//6 23//6 9//6 2//6
f 23//6 22//6 10//6 9//6
f 22//6 21//6 11//6 10//6
f 21//6 20//6 12//6 11//6
f 20//6 19//6 13//6 12//6
f 1//5 18//5 24//5 5//5
f 18//5 17//5 25//5 24//5
f 17//5 16//5 26//5 25//5
f 16//5 15//5 27//5 26//5
f 15//5 14//5 28//5 27//5
f 8//7 19//7 28//7 7//7
f 19//8 20//8 27//8 28//8
f 20//9 21//9 26//9 27//9
f 21//10 22//10 25//10 26//10
f 22//11 23//11 24//11 25//11
f 2//12 9//12 18//12 1//12
f 9//13 10//13 17//13 18//13
f 10//14 11//14 16//14 17//14
f 11//15 12//15 15//15 16//15
f 12//16 13//16 14//16 15//16
