# This file uses centimeters as units for non-parametric coordinates.

mtllib tile lo.mtl
g default
v -1.000000 -1.000000 1.000000
v 1.000000 -1.000000 1.000000
v -0.989953 -0.037496 0.989953
v -0.962504 -0.010047 0.962504
v -0.925008 0.000000 0.925008
v -1.000000 -0.074992 1.000000
v 0.989953 -0.037496 0.989953
v 0.962504 -0.010047 0.962504
v 0.925008 0.000000 0.925008
v 1.000000 -0.074992 1.000000
v 0.893784 0.000000 0.893783
v -0.893784 0.000000 0.893783
v 0.877043 0.000000 0.877043
v -0.877043 0.000000 0.877043
v 0.874967 0.109040 0.874967
v 0.869296 0.114711 0.869296
v 0.861549 0.116787 0.861550
v 0.877043 0.101294 0.877043
v -0.874967 0.109040 0.874967
v -0.869296 0.114711 0.869296
v -0.861549 0.116787 0.861550
v -0.877043 0.101294 0.877043
v 1.000000 -1.000000 -1.000000
v -1.000000 -1.000000 -1.000000
v 0.989953 -0.037496 -0.989953
v 0.962504 -0.010047 -0.962504
v 0.925008 0.000000 -0.925008
v 1.000000 -0.074992 -1.000000
v -0.989953 -0.037496 -0.989953
v -0.962504 -0.010047 -0.962504
v -0.925008 0.000000 -0.925008
v -1.000000 -0.074992 -1.000000
v -0.893784 0.000000 -0.893783
v 0.893784 -0.000000 -0.893783
v -0.877043 0.000000 -0.877043
v 0.877043 0.000000 -0.877043
v -0.874967 0.109040 -0.874967
v -0.869296 0.114711 -0.869296
v -0.861549 0.116787 -0.861550
v -0.877043 0.101294 -0.877043
v 0.874967 0.109040 -0.874967
v 0.869296 0.114711 -0.869296
v 0.861549 0.116787 -0.861550
v 0.877043 0.101294 -0.877043
vt 0.888251 0.201465
vt 0.011749 0.201465
vt 0.011750 0.228060
vt 0.888251 0.228060
vt 0.888251 0.037849
vt 0.888251 0.037849
vt 0.011749 0.243584
vt 0.888251 0.243584
vt 0.888251 0.282291
vt 0.011749 0.282291
vt 0.011750 0.256373
vt 0.888251 0.256373
vt 0.888251 0.243584
vt 0.888251 0.256373
vt 0.011749 0.267529
vt 0.888251 0.267529
vt 0.011749 0.256373
vt 0.011749 0.243584
vt 0.577191 0.933583
vt 0.888251 0.228059
vt 0.888251 0.267529
vt 0.011749 0.282291
vt 0.888251 0.282291
vt 0.011749 0.267529
vt 0.888251 0.201464
vt 0.011749 0.228060
vt 0.011749 0.415284
vt 0.888251 0.415284
vt 0.011749 0.462151
vt 0.521841 0.982475
vt 0.888251 0.435992
vt 0.011749 0.435992
vt 0.025984 0.486620
vt 0.521841 0.486619
vt 0.011749 0.435992
vt 0.888251 0.415284
vt 0.011749 0.415284
vt 0.888251 0.435992
vt 0.011749 0.037849
vt 0.011749 0.396491
vt 0.577191 0.565817
vt 0.011749 0.201465
vt 0.888251 0.396491
vt 0.011750 0.396491
vt 0.888250 0.396491
vt 0.944957 0.933583
vt 0.011749 0.037849
vt 0.944957 0.565817
vt 0.011749 0.282291
vt 0.011749 0.396491
vt 0.888251 0.282291
vt 0.888250 0.396491
vt 0.888250 0.415284
vt 0.888250 0.435992
vt 0.011749 0.435992
vt 0.011749 0.415284
vt 0.011749 0.267529
vt 0.888250 0.267529
vt 0.011749 0.256373
vt 0.888250 0.256373
vt 0.888251 0.037849
vt 0.011749 0.201465
vt 0.888251 0.201465
vt 0.888251 0.037849
vt 0.888251 0.228060
vt 0.888251 0.243584
vt 0.011749 0.243584
vt 0.011750 0.228059
vt 0.011749 0.282291
vt 0.011749 0.396491
vt 0.888251 0.282291
vt 0.888251 0.396491
vt 0.888251 0.415284
vt 0.888250 0.435992
vt 0.011749 0.435992
vt 0.011749 0.415284
vt 0.011749 0.267529
vt 0.888250 0.267529
vt 0.011749 0.256373
vt 0.888251 0.256373
vt 0.011749 0.037849
vt 0.011749 0.201465
vt 0.888251 0.201465
vt 0.011749 0.037849
vt 0.888251 0.228060
vt 0.888251 0.243584
vt 0.011750 0.243584
vt 0.011749 0.228060
vt 0.888251 0.462151
vt 0.025985 0.982476
vt 0.011749 0.462151
vt 0.888251 0.462151
vt 0.011749 0.462151
vt 0.888250 0.462151
vt 0.011750 0.462151
vt 0.888250 0.462151
vn 0.000000 0.008768 0.999962
vn 0.000000 0.008768 0.999962
vn 0.000000 0.423917 0.905701
vn 0.000000 0.423917 0.905701
vn 0.000000 0.795796 0.605565
vn 0.000000 0.795796 0.605565
vn 0.000000 0.978442 0.206524
vn 0.000000 0.978442 0.206524
vn 0.000000 0.000000 1.000000
vn 0.000000 0.000000 1.000000
vn 0.000000 1.000000 0.000000
vn 0.000000 1.000000 0.000000
vn 0.000000 0.242781 0.970081
vn 0.000000 0.242781 0.970081
vn 0.001778 0.999997 0.001778
vn -0.001778 0.999997 0.001778
vn 0.000000 0.797415 0.603432
vn 0.000000 0.797415 0.603432
vn 0.000000 0.425494 0.904961
vn 0.000000 0.425494 0.904961
vn 0.000000 0.016132 0.999870
vn 0.000000 0.016132 0.999870
vn -0.603408 0.797432 0.000000
vn -0.001778 0.999997 -0.001778
vn -0.603408 0.797432 0.000000
vn -0.904957 0.425503 0.000000
vn -0.904957 0.425503 0.000000
vn -0.999870 0.016131 0.000000
vn -0.999870 0.016131 0.000000
vn -0.970082 0.242776 0.000000
vn -0.970082 0.242776 0.000000
vn 0.000000 1.000000 0.000000
vn 0.000000 1.000000 0.000000
vn -0.206522 0.978442 0.000000
vn -0.206522 0.978442 0.000000
vn -0.605563 0.795798 0.000000
vn -0.605563 0.795798 0.000000
vn -0.905702 0.423915 0.000000
vn -0.905702 0.423915 0.000000
vn -0.999962 0.008767 0.000000
vn -0.999962 0.008767 0.000000
vn -1.000000 0.000000 0.000000
vn -1.000000 0.000000 0.000000
vn 0.000000 -1.000000 0.000000
vn 0.000000 -1.000000 0.000000
vn 0.000000 -1.000000 0.000000
vn 0.000000 -1.000000 0.000000
vn 0.999962 0.008768 0.000000
vn 1.000000 0.000000 0.000000
vn 1.000000 0.000000 0.000000
vn 0.999962 0.008768 0.000000
vn 0.905699 0.423922 0.000000
vn 0.905699 0.423922 0.000000
vn 0.605562 0.795798 0.000000
vn 0.605562 0.795798 0.000000
vn 0.206522 0.978442 -0.000000
vn 0.206522 0.978442 -0.000000
vn -0.000000 1.000000 -0.000000
vn -0.000000 1.000000 -0.000000
vn 0.970081 0.242780 -0.000000
vn 0.970081 0.242780 -0.000000
vn 0.999870 0.016131 0.000000
vn 0.999870 0.016131 0.000000
vn 0.904965 0.425486 0.000000
vn 0.904965 0.425486 0.000000
vn 0.603429 0.797417 0.000000
vn 0.603429 0.797417 0.000000
vn 0.001778 0.999997 -0.001778
vn 0.000000 0.008768 -0.999962
vn 0.000000 0.008768 -0.999962
vn 0.000000 0.423917 -0.905701
vn 0.000000 0.423917 -0.905701
vn 0.000000 0.795796 -0.605565
vn 0.000000 0.795796 -0.605565
vn 0.000000 0.978442 -0.206524
vn 0.000000 0.978442 -0.206524
vn 0.000000 0.000000 -1.000000
vn 0.000000 0.000000 -1.000000
vn 0.000000 1.000000 0.000000
vn 0.000000 1.000000 0.000000
vn 0.000000 0.242781 -0.970081
vn 0.000000 0.242781 -0.970081
vn 0.000000 0.797415 -0.603432
vn 0.000000 0.797415 -0.603432
vn 0.000000 0.425494 -0.904961
vn 0.000000 0.425494 -0.904961
vn 0.000000 0.016132 -0.999870
vn 0.000000 0.016132 -0.999870
s 1
g pCube61
usemtl phong1SG
f 6/82/1 10/83/2 7/85/3 3/88/4
f 3/88/4 7/85/3 8/86/5 4/87/6
f 4/87/6 8/86/5 9/80/7 5/79/8
f 6/82/1 1/81/9 2/6/10 10/83/2
f 9/80/7 11/78/11 12/77/12 5/79/8
f 11/78/11 13/71/13 14/69/14 12/77/12
f 17/89/15 21/95/16 20/75/17 16/74/18
f 16/74/18 20/75/17 19/76/19 15/73/20
f 15/73/20 19/76/19 22/70/21 18/72/22
f 13/71/13 18/72/22 22/70/21 14/69/14
f 20/31/23 21/96/16 39/93/24 38/35/25
f 19/36/26 20/31/23 38/35/25 37/27/27
f 22/43/28 19/36/26 37/27/27 40/40/29
f 14/23/30 22/43/28 40/40/29 35/10/31
f 12/16/32 14/23/30 35/10/31 33/24/33
f 5/12/34 12/16/32 33/24/33 31/17/35
f 4/8/36 5/12/34 31/17/35 30/18/37
f 3/4/38 4/8/36 30/18/37 29/26/39
f 6/1/40 3/4/38 29/26/39 32/42/41
f 1/5/42 6/1/40 32/42/41 24/39/43
s off
f 2/48/44 1/46/45 24/19/46 23/41/47
s 1
f 10/2/48 2/84/49 23/61/50 28/25/51
f 7/3/52 10/2/48 28/25/51 25/20/53
f 8/7/54 7/3/52 25/20/53 26/13/55
f 9/11/56 8/7/54 26/13/55 27/14/57
f 11/15/58 9/11/56 27/14/57 34/21/59
f 13/22/60 11/15/58 34/21/59 36/9/61
f 18/44/62 13/22/60 36/9/61 44/45/63
f 15/37/64 18/44/62 44/45/63 41/28/65
f 16/32/66 15/37/64 41/28/65 42/38/67
f 17/29/15 16/32/66 42/38/67 43/92/68
f 21/30/16 17/90/15 43/33/68 39/34/24
f 28/62/69 32/63/70 29/65/71 25/68/72
f 25/68/72 29/65/71 30/66/73 26/67/74
f 26/67/74 30/66/73 31/60/75 27/59/76
f 28/62/69 23/47/77 24/64/78 32/63/70
f 31/60/75 33/58/79 34/57/80 27/59/76
f 33/58/79 35/51/81 36/49/82 34/57/80
f 39/94/24 43/91/68 42/55/83 38/54/84
f 38/54/84 42/55/83 41/56/85 37/53/86
f 37/53/86 41/56/85 44/50/87 40/52/88
f 35/51/81 40/52/88 44/50/87 36/49/82
